<?xml version="1.0" encoding="UTF-8"?>
<svg xmlns="http://www.w3.org/2000/svg" viewBox="0 0 390 130" width="390" height="130">
  <defs>
    <filter id="shadow1" x="-50%" y="-50%" width="200%" height="200%">
      <feDropShadow dx="0" dy="2" stdDeviation="2" flood-color="#0F172A" flood-opacity="0.10"/>
    </filter>
  </defs>

  <rect width="390" height="130" fill="#E8EDE7"/>

  <g transform="translate(12, 12)">
    <circle cx="18" cy="18" r="18" fill="#FFFFFF" stroke="#E2E8F0" stroke-width="0.5" filter="url(#shadow1)"/>
    <g transform="translate(8, 8)">
      <path d="M10 3 C 10 3, 5 8.5, 5 12.5 a 5 5 0 0 0 10 0 c 0 -4 -5 -9.5 -5 -9.5 z" fill="#2D6FE3"/>
    </g>
  </g>

  <g transform="translate(60, 12)">
    <rect x="0" y="0" width="318" height="36" rx="18" fill="#FFFFFF" stroke="#E2E8F0" stroke-width="0.5"/>
    <circle cx="18" cy="18" r="13" fill="#F1F5F9"/>
    <text x="18" y="22" font-family="ui-sans-serif, system-ui, sans-serif" font-size="10" fill="#475569" font-weight="500" text-anchor="middle">XL</text>
    <text x="38" y="15" font-family="ui-sans-serif, system-ui, sans-serif" font-size="13" fill="#0F172A" font-weight="500">big momma</text>
    <text x="98" y="15" font-family="ui-sans-serif, system-ui, sans-serif" font-size="12" fill="#94A3B8">·</text>
    <g transform="translate(106, 8)">
      <path d="M10 0 c -3.5 0 -6.5 3 -6.5 6.5 c 0 5 6.5 10 6.5 10 s 6.5 -5 6.5 -10 c 0 -3.5 -3 -6.5 -6.5 -6.5 z M10 4.5 a 2 2 0 0 1 0 4 a 2 2 0 0 1 0 -4" fill="#94A3B8" transform="scale(0.6)"/>
    </g>
    <text x="120" y="15" font-family="ui-sans-serif, system-ui, sans-serif" font-size="12" fill="#0F172A" font-weight="500">Buffalo, NY</text>
    <text x="38" y="28" font-family="ui-sans-serif, system-ui, sans-serif" font-size="10.5" fill="#475569">Coach · arrive 4:30 PM</text>
    <path d="M298 13 l 5 5 l 5 -5" stroke="#94A3B8" stroke-width="2.5" fill="none" stroke-linecap="round"/>
  </g>

  <g transform="translate(12, 60)">
    <rect x="0" y="0" width="98" height="32" rx="16" fill="#2D6FE3"/>
    <text x="49" y="20" font-family="ui-sans-serif, system-ui, sans-serif" font-size="12.5" fill="white" font-weight="500" text-anchor="middle">Wash, Dump ▾</text>
  </g>

  <g transform="translate(118, 60)">
    <rect x="0" y="0" width="116" height="32" rx="16" fill="rgba(255,255,255,0.96)" stroke="#93BBF6" stroke-width="0.5"/>
    <circle cx="14" cy="16" r="3" fill="#15803D"/>
    <text x="22" y="20" font-family="ui-sans-serif, system-ui, sans-serif" font-size="12.5" fill="#1F52B0" font-weight="500">Open at arrival</text>
  </g>

  <g transform="translate(308, 60)">
    <rect x="0" y="0" width="70" height="32" rx="16" fill="rgba(255,255,255,0.96)" stroke="#CBD5E1" stroke-width="0.5"/>
    <text x="22" y="20" font-family="ui-sans-serif, system-ui, sans-serif" font-size="12.5" fill="#0F172A" font-weight="500">Filters</text>
    <circle cx="56" cy="16" r="8" fill="#2D6FE3"/>
    <text x="56" y="19.5" font-family="ui-sans-serif, system-ui, sans-serif" font-size="9" fill="white" font-weight="500" text-anchor="middle">2</text>
  </g>

  <text x="12" y="118" font-family="ui-sans-serif, system-ui, sans-serif" font-size="10" fill="#475569" font-style="italic">Total header height: ~96px (vs ~136px expanded). Reclaims ~38px of map.</text>
</svg>
