<?xml version="1.0" encoding="UTF-8"?>
<svg xmlns="http://www.w3.org/2000/svg" viewBox="0 0 300 100" width="300" height="100">
  <rect width="300" height="100" fill="#E8EDE7"/>
  <g transform="translate(80, 20)">
    <g transform="scale(1.15)">
      <path d="M16 2 C 7 2, 2 9, 2 16 C 2 25, 16 38, 16 38 C 16 38, 30 25, 30 16 C 30 9, 25 2, 16 2 Z" fill="#2D6FE3" stroke="#FBBF24" stroke-width="3.5"/>
      <circle cx="16" cy="15" r="9" fill="#FFFFFF"/>
      <path d="M16 9 C 16 9, 12 13, 12 16 a 4 4 0 0 0 8 0 c 0 -3 -4 -7 -4 -7 z" fill="#2D6FE3"/>
    </g>
  </g>
  <text x="150" y="60" font-family="ui-sans-serif, system-ui, sans-serif" font-size="10" fill="#475569">Selected: 3px gold ring (#FBBF24),</text>
  <text x="150" y="74" font-family="ui-sans-serif, system-ui, sans-serif" font-size="10" fill="#475569">scale to 1.15x, raises z-index above neighbors</text>
</svg>
