<?xml version="1.0" encoding="UTF-8"?>
<svg xmlns="http://www.w3.org/2000/svg" viewBox="0 0 390 100" width="390" height="100">
  <rect width="390" height="100" fill="#F8FAFC"/>

  <g transform="translate(16, 14)">
    <circle cx="8" cy="8" r="7" fill="none" stroke="#94A3B8" stroke-width="1.8"/>
    <line x1="8" y1="5" x2="8" y2="9" stroke="#94A3B8" stroke-width="1.8"/>
    <circle cx="8" cy="11.5" r="0.8" fill="#94A3B8"/>
  </g>

  <g transform="translate(56, 12)">
    <text x="0" y="14" font-family="ui-sans-serif, system-ui, sans-serif" font-size="14" fill="#475569" font-weight="500">Skyline Bus Wash</text>
    <text x="0" y="30" font-family="ui-sans-serif, system-ui, sans-serif" font-size="11.5" fill="#94A3B8">Brampton · 7.2 mi away</text>

    <g transform="translate(0, 42)">
      <rect x="0" y="0" width="178" height="22" rx="11" fill="#FEF3C7"/>
      <g transform="translate(8, 4)">
        <path d="M3 10h13l4 5v6h-2 a 2 2 0 1 1 -4 0 H 9 a 2 2 0 1 1 -4 0 H 3 V 10 z" fill="none" stroke="#B45309" stroke-width="2"/>
      </g>
      <text x="32" y="15" font-family="ui-sans-serif, system-ui, sans-serif" font-size="11" fill="#92400E" font-weight="500">No bay fits big momma</text>
    </g>
  </g>

  <path d="M376 18 l -4 4 l 4 4" stroke="#CBD5E1" stroke-width="2" fill="none" stroke-linecap="round" transform="rotate(180, 376, 22)"/>

  <line x1="0" y1="90" x2="390" y2="90" stroke="#E2E8F0" stroke-width="0.5"/>
</svg>
